<mxfile host="app.diagrams.net" modified="2020-12-23T12:51:50.848Z" agent="5.0 (Macintosh; Intel Mac OS X 10_13_6) AppleWebKit/537.36 (KHTML, like Gecko) Chrome/87.0.4280.88 Safari/537.36" etag="q05I5_8BssA9nXvj1cMP" version="14.0.5" type="github">
  <diagram id="oVy6HB94mMdYrrCmECyE" name="Page-1">
    <mxGraphModel dx="946" dy="646" grid="1" gridSize="10" guides="1" tooltips="1" connect="1" arrows="1" fold="1" page="1" pageScale="1" pageWidth="827" pageHeight="1169" math="0" shadow="0">
      <root>
        <mxCell id="0" />
        <mxCell id="1" parent="0" />
        <mxCell id="6Pqj2eO8Iks_32iRVp92-8" value="" style="rounded=1;whiteSpace=wrap;html=1;fontSize=12;" vertex="1" parent="1">
          <mxGeometry x="370" y="80" width="280" height="80" as="geometry" />
        </mxCell>
        <mxCell id="6Pqj2eO8Iks_32iRVp92-5" value="reflect.ValueOf(obj)" style="edgeStyle=orthogonalEdgeStyle;rounded=0;orthogonalLoop=1;jettySize=auto;html=1;exitX=0.5;exitY=1;exitDx=0;exitDy=0;fontSize=12;entryX=0;entryY=0.25;entryDx=0;entryDy=0;strokeColor=#FF6666;strokeWidth=2;" edge="1" parent="1" source="6Pqj2eO8Iks_32iRVp92-1" target="6Pqj2eO8Iks_32iRVp92-3">
          <mxGeometry relative="1" as="geometry" />
        </mxCell>
        <mxCell id="6Pqj2eO8Iks_32iRVp92-6" value="reflect.TypeOf(obj)" style="edgeStyle=orthogonalEdgeStyle;rounded=0;orthogonalLoop=1;jettySize=auto;html=1;exitX=0.5;exitY=0;exitDx=0;exitDy=0;entryX=0;entryY=0.5;entryDx=0;entryDy=0;fontSize=12;strokeColor=#FF6666;strokeWidth=2;" edge="1" parent="1" source="6Pqj2eO8Iks_32iRVp92-1" target="6Pqj2eO8Iks_32iRVp92-2">
          <mxGeometry x="0.2174" relative="1" as="geometry">
            <mxPoint as="offset" />
          </mxGeometry>
        </mxCell>
        <mxCell id="6Pqj2eO8Iks_32iRVp92-36" style="edgeStyle=orthogonalEdgeStyle;rounded=0;orthogonalLoop=1;jettySize=auto;html=1;exitX=0.25;exitY=1;exitDx=0;exitDy=0;entryX=0;entryY=0.75;entryDx=0;entryDy=0;fontSize=12;strokeColor=#007FFF;strokeWidth=2;" edge="1" parent="1" source="6Pqj2eO8Iks_32iRVp92-1" target="6Pqj2eO8Iks_32iRVp92-3">
          <mxGeometry relative="1" as="geometry" />
        </mxCell>
        <mxCell id="6Pqj2eO8Iks_32iRVp92-37" value="reflect.ValueOf(&amp;amp;obj)" style="edgeLabel;html=1;align=center;verticalAlign=middle;resizable=0;points=[];fontSize=12;" vertex="1" connectable="0" parent="6Pqj2eO8Iks_32iRVp92-36">
          <mxGeometry x="-0.0694" y="2" relative="1" as="geometry">
            <mxPoint x="11" as="offset" />
          </mxGeometry>
        </mxCell>
        <mxCell id="6Pqj2eO8Iks_32iRVp92-1" value="int&lt;br&gt;float&lt;br style=&quot;font-size: 16px&quot;&gt;string&lt;br style=&quot;font-size: 16px&quot;&gt;struct&lt;br style=&quot;font-size: 16px&quot;&gt;..." style="rounded=1;whiteSpace=wrap;html=1;fontSize=16;" vertex="1" parent="1">
          <mxGeometry x="150" y="160" width="120" height="100" as="geometry" />
        </mxCell>
        <mxCell id="6Pqj2eO8Iks_32iRVp92-2" value="reflect.Type" style="rounded=1;whiteSpace=wrap;html=1;fontSize=16;" vertex="1" parent="1">
          <mxGeometry x="370" y="100" width="120" height="40" as="geometry" />
        </mxCell>
        <mxCell id="6Pqj2eO8Iks_32iRVp92-7" value="obj.Type()" style="edgeStyle=orthogonalEdgeStyle;rounded=0;orthogonalLoop=1;jettySize=auto;html=1;exitX=0.5;exitY=0;exitDx=0;exitDy=0;fontSize=12;strokeColor=#FF6666;strokeWidth=2;" edge="1" parent="1" source="6Pqj2eO8Iks_32iRVp92-3" target="6Pqj2eO8Iks_32iRVp92-2">
          <mxGeometry relative="1" as="geometry" />
        </mxCell>
        <mxCell id="6Pqj2eO8Iks_32iRVp92-10" style="edgeStyle=orthogonalEdgeStyle;rounded=0;orthogonalLoop=1;jettySize=auto;html=1;exitX=1;exitY=0.5;exitDx=0;exitDy=0;fontSize=12;strokeColor=#FF6666;strokeWidth=2;" edge="1" parent="1" source="6Pqj2eO8Iks_32iRVp92-3" target="6Pqj2eO8Iks_32iRVp92-8">
          <mxGeometry relative="1" as="geometry" />
        </mxCell>
        <mxCell id="6Pqj2eO8Iks_32iRVp92-11" value="obj.Kind()" style="edgeLabel;html=1;align=center;verticalAlign=middle;resizable=0;points=[];fontSize=12;" vertex="1" connectable="0" parent="6Pqj2eO8Iks_32iRVp92-10">
          <mxGeometry x="0.1" y="-1" relative="1" as="geometry">
            <mxPoint as="offset" />
          </mxGeometry>
        </mxCell>
        <mxCell id="6Pqj2eO8Iks_32iRVp92-23" style="edgeStyle=orthogonalEdgeStyle;rounded=0;orthogonalLoop=1;jettySize=auto;html=1;exitX=0.25;exitY=1;exitDx=0;exitDy=0;entryX=0.75;entryY=1;entryDx=0;entryDy=0;fontSize=12;strokeColor=#00CC00;strokeWidth=2;" edge="1" parent="1" source="6Pqj2eO8Iks_32iRVp92-3" target="6Pqj2eO8Iks_32iRVp92-21">
          <mxGeometry relative="1" as="geometry" />
        </mxCell>
        <mxCell id="6Pqj2eO8Iks_32iRVp92-24" value="obj.Int()/obj.Float()/obj.String()..." style="edgeLabel;html=1;align=center;verticalAlign=middle;resizable=0;points=[];fontSize=12;" vertex="1" connectable="0" parent="6Pqj2eO8Iks_32iRVp92-23">
          <mxGeometry x="-0.0957" relative="1" as="geometry">
            <mxPoint as="offset" />
          </mxGeometry>
        </mxCell>
        <mxCell id="6Pqj2eO8Iks_32iRVp92-26" style="edgeStyle=orthogonalEdgeStyle;rounded=0;orthogonalLoop=1;jettySize=auto;html=1;exitX=0.5;exitY=1;exitDx=0;exitDy=0;entryX=1;entryY=0.5;entryDx=0;entryDy=0;fontSize=12;strokeColor=#00CC00;strokeWidth=2;" edge="1" parent="1" source="6Pqj2eO8Iks_32iRVp92-3" target="6Pqj2eO8Iks_32iRVp92-25">
          <mxGeometry relative="1" as="geometry" />
        </mxCell>
        <mxCell id="6Pqj2eO8Iks_32iRVp92-27" value="obj.Interface()" style="edgeLabel;html=1;align=center;verticalAlign=middle;resizable=0;points=[];fontSize=12;" vertex="1" connectable="0" parent="6Pqj2eO8Iks_32iRVp92-26">
          <mxGeometry x="0.5" relative="1" as="geometry">
            <mxPoint as="offset" />
          </mxGeometry>
        </mxCell>
        <mxCell id="6Pqj2eO8Iks_32iRVp92-34" style="edgeStyle=orthogonalEdgeStyle;rounded=0;orthogonalLoop=1;jettySize=auto;html=1;exitX=0.75;exitY=1;exitDx=0;exitDy=0;entryX=1;entryY=0.5;entryDx=0;entryDy=0;fontSize=12;strokeColor=#007FFF;strokeWidth=2;" edge="1" parent="1" source="6Pqj2eO8Iks_32iRVp92-3" target="6Pqj2eO8Iks_32iRVp92-33">
          <mxGeometry relative="1" as="geometry" />
        </mxCell>
        <mxCell id="6Pqj2eO8Iks_32iRVp92-3" value="reflect.Value" style="rounded=1;whiteSpace=wrap;html=1;fontSize=16;" vertex="1" parent="1">
          <mxGeometry x="370" y="270" width="120" height="60" as="geometry" />
        </mxCell>
        <mxCell id="6Pqj2eO8Iks_32iRVp92-9" value="&lt;span style=&quot;font-size: 16px&quot;&gt;reflect.Kind&lt;/span&gt;" style="text;html=1;strokeColor=none;fillColor=none;align=center;verticalAlign=middle;whiteSpace=wrap;rounded=0;fontSize=12;" vertex="1" parent="1">
          <mxGeometry x="530" y="110" width="40" height="20" as="geometry" />
        </mxCell>
        <mxCell id="6Pqj2eO8Iks_32iRVp92-12" value="&lt;code style=&quot;margin: 0px; padding: 0.2em; max-width: 100%; box-sizing: border-box; overflow-wrap: break-word; font-size: inherit; font-style: normal; font-weight: normal; letter-spacing: 2px; text-indent: 0px; text-transform: none; word-spacing: 0px; background-color: rgb(255, 255, 255); text-decoration: none; color: rgb(201, 44, 44); line-height: inherit; border-radius: 0.3em; border: 1px solid rgba(0, 0, 0, 0.098); display: inline;&quot;&gt;Kind&lt;/code&gt;&lt;span style=&quot;color: rgb(62, 62, 62); font-family: &amp;quot;helvetica neue&amp;quot;, helvetica, &amp;quot;hiragino sans gb&amp;quot;, &amp;quot;microsoft yahei&amp;quot;, arial, sans-serif; font-size: 16px; font-style: normal; font-weight: normal; letter-spacing: 2px; text-indent: 0px; text-transform: none; word-spacing: 0px; background-color: rgb(255, 255, 255); text-decoration: none; display: inline; float: none;&quot;&gt;的值是&lt;/span&gt;&lt;code style=&quot;margin: 0px; padding: 0.2em; max-width: 100%; box-sizing: border-box; overflow-wrap: break-word; font-size: inherit; font-style: normal; font-weight: normal; letter-spacing: 2px; text-indent: 0px; text-transform: none; word-spacing: 0px; background-color: rgb(255, 255, 255); text-decoration: none; color: rgb(201, 44, 44); line-height: inherit; border-radius: 0.3em; border: 1px solid rgba(0, 0, 0, 0.098); display: inline;&quot;&gt;struct&lt;/code&gt;&lt;span style=&quot;color: rgb(62, 62, 62); font-family: &amp;quot;helvetica neue&amp;quot;, helvetica, &amp;quot;hiragino sans gb&amp;quot;, &amp;quot;microsoft yahei&amp;quot;, arial, sans-serif; font-size: 16px; font-style: normal; font-weight: normal; letter-spacing: 2px; text-indent: 0px; text-transform: none; word-spacing: 0px; background-color: rgb(255, 255, 255); text-decoration: none; display: inline; float: none;&quot;&gt;,而&lt;/span&gt;&lt;code style=&quot;margin: 0px; padding: 0.2em; max-width: 100%; box-sizing: border-box; overflow-wrap: break-word; font-size: inherit; font-style: normal; font-weight: normal; letter-spacing: 2px; text-indent: 0px; text-transform: none; word-spacing: 0px; background-color: rgb(255, 255, 255); text-decoration: none; color: rgb(201, 44, 44); line-height: inherit; border-radius: 0.3em; border: 1px solid rgba(0, 0, 0, 0.098); display: inline;&quot;&gt;Type&lt;/code&gt;&lt;span style=&quot;color: rgb(62, 62, 62); font-family: &amp;quot;helvetica neue&amp;quot;, helvetica, &amp;quot;hiragino sans gb&amp;quot;, &amp;quot;microsoft yahei&amp;quot;, arial, sans-serif; font-size: 16px; font-style: normal; font-weight: normal; letter-spacing: 2px; text-indent: 0px; text-transform: none; word-spacing: 0px; background-color: rgb(255, 255, 255); text-decoration: none; display: inline; float: none;&quot;&gt;的值是&lt;/span&gt;&lt;code style=&quot;margin: 0px; padding: 0.2em; max-width: 100%; box-sizing: border-box; overflow-wrap: break-word; font-size: inherit; font-style: normal; font-weight: normal; letter-spacing: 2px; text-indent: 0px; text-transform: none; word-spacing: 0px; background-color: rgb(255, 255, 255); text-decoration: none; color: rgb(201, 44, 44); line-height: inherit; border-radius: 0.3em; border: 1px solid rgba(0, 0, 0, 0.098); display: inline;&quot;&gt;包名.Employee&lt;/code&gt;" style="text;whiteSpace=wrap;html=1;fontSize=12;" vertex="1" parent="1">
          <mxGeometry x="680" y="80" width="420" height="30" as="geometry" />
        </mxCell>
        <mxCell id="6Pqj2eO8Iks_32iRVp92-17" style="edgeStyle=orthogonalEdgeStyle;rounded=0;orthogonalLoop=1;jettySize=auto;html=1;exitX=1;exitY=0.5;exitDx=0;exitDy=0;fontSize=12;" edge="1" parent="1" source="6Pqj2eO8Iks_32iRVp92-14" target="6Pqj2eO8Iks_32iRVp92-15">
          <mxGeometry relative="1" as="geometry" />
        </mxCell>
        <mxCell id="6Pqj2eO8Iks_32iRVp92-14" value="&lt;font style=&quot;font-size: 16px&quot;&gt;变量&lt;/font&gt;" style="rounded=1;whiteSpace=wrap;html=1;fontSize=12;" vertex="1" parent="1">
          <mxGeometry x="70" y="555" width="120" height="60" as="geometry" />
        </mxCell>
        <mxCell id="6Pqj2eO8Iks_32iRVp92-18" style="edgeStyle=orthogonalEdgeStyle;rounded=0;orthogonalLoop=1;jettySize=auto;html=1;exitX=1;exitY=0.5;exitDx=0;exitDy=0;fontSize=12;" edge="1" parent="1" source="6Pqj2eO8Iks_32iRVp92-15" target="6Pqj2eO8Iks_32iRVp92-16">
          <mxGeometry relative="1" as="geometry" />
        </mxCell>
        <mxCell id="6Pqj2eO8Iks_32iRVp92-19" style="edgeStyle=orthogonalEdgeStyle;rounded=0;orthogonalLoop=1;jettySize=auto;html=1;exitX=0;exitY=0.5;exitDx=0;exitDy=0;fontSize=12;" edge="1" parent="1" source="6Pqj2eO8Iks_32iRVp92-15" target="6Pqj2eO8Iks_32iRVp92-14">
          <mxGeometry relative="1" as="geometry" />
        </mxCell>
        <mxCell id="6Pqj2eO8Iks_32iRVp92-15" value="&lt;font style=&quot;font-size: 16px&quot;&gt;interface{}&lt;/font&gt;" style="rounded=1;whiteSpace=wrap;html=1;fontSize=12;" vertex="1" parent="1">
          <mxGeometry x="290" y="555" width="120" height="60" as="geometry" />
        </mxCell>
        <mxCell id="6Pqj2eO8Iks_32iRVp92-20" style="edgeStyle=orthogonalEdgeStyle;rounded=0;orthogonalLoop=1;jettySize=auto;html=1;exitX=0;exitY=0.5;exitDx=0;exitDy=0;fontSize=12;" edge="1" parent="1" source="6Pqj2eO8Iks_32iRVp92-16" target="6Pqj2eO8Iks_32iRVp92-15">
          <mxGeometry relative="1" as="geometry" />
        </mxCell>
        <mxCell id="6Pqj2eO8Iks_32iRVp92-16" value="&lt;font style=&quot;font-size: 16px&quot;&gt;reflect.Value&lt;/font&gt;" style="rounded=1;whiteSpace=wrap;html=1;fontSize=12;" vertex="1" parent="1">
          <mxGeometry x="500" y="555" width="120" height="60" as="geometry" />
        </mxCell>
        <mxCell id="6Pqj2eO8Iks_32iRVp92-31" style="edgeStyle=orthogonalEdgeStyle;rounded=0;orthogonalLoop=1;jettySize=auto;html=1;exitX=1;exitY=0.5;exitDx=0;exitDy=0;fontSize=12;" edge="1" parent="1" source="6Pqj2eO8Iks_32iRVp92-21" target="6Pqj2eO8Iks_32iRVp92-1">
          <mxGeometry relative="1" as="geometry" />
        </mxCell>
        <mxCell id="6Pqj2eO8Iks_32iRVp92-21" value="&lt;span style=&quot;font-size: 16px&quot;&gt;值&lt;/span&gt;" style="rounded=1;whiteSpace=wrap;html=1;fontSize=12;" vertex="1" parent="1">
          <mxGeometry x="30" y="180" width="60" height="60" as="geometry" />
        </mxCell>
        <mxCell id="6Pqj2eO8Iks_32iRVp92-28" style="edgeStyle=orthogonalEdgeStyle;rounded=0;orthogonalLoop=1;jettySize=auto;html=1;exitX=0;exitY=0.5;exitDx=0;exitDy=0;fontSize=12;strokeColor=#00CC00;strokeWidth=2;" edge="1" parent="1" source="6Pqj2eO8Iks_32iRVp92-25" target="6Pqj2eO8Iks_32iRVp92-21">
          <mxGeometry relative="1" as="geometry" />
        </mxCell>
        <mxCell id="6Pqj2eO8Iks_32iRVp92-29" value="类型断言" style="edgeLabel;html=1;align=center;verticalAlign=middle;resizable=0;points=[];fontSize=12;" vertex="1" connectable="0" parent="6Pqj2eO8Iks_32iRVp92-28">
          <mxGeometry x="-0.6087" relative="1" as="geometry">
            <mxPoint as="offset" />
          </mxGeometry>
        </mxCell>
        <mxCell id="6Pqj2eO8Iks_32iRVp92-25" value="&lt;font style=&quot;font-size: 16px&quot;&gt;interface{}&lt;/font&gt;" style="rounded=1;whiteSpace=wrap;html=1;fontSize=12;" vertex="1" parent="1">
          <mxGeometry x="150" y="390" width="120" height="40" as="geometry" />
        </mxCell>
        <mxCell id="6Pqj2eO8Iks_32iRVp92-35" value="obj.Elem().SetInt()" style="edgeStyle=orthogonalEdgeStyle;rounded=0;orthogonalLoop=1;jettySize=auto;html=1;exitX=0;exitY=0.5;exitDx=0;exitDy=0;fontSize=12;entryX=0.25;entryY=1;entryDx=0;entryDy=0;strokeColor=#007FFF;strokeWidth=2;" edge="1" parent="1" source="6Pqj2eO8Iks_32iRVp92-33" target="6Pqj2eO8Iks_32iRVp92-21">
          <mxGeometry x="-0.5349" relative="1" as="geometry">
            <mxPoint as="offset" />
          </mxGeometry>
        </mxCell>
        <mxCell id="6Pqj2eO8Iks_32iRVp92-33" value="&lt;font style=&quot;font-size: 16px&quot;&gt;指针Value&lt;/font&gt;" style="rounded=1;whiteSpace=wrap;html=1;fontSize=12;" vertex="1" parent="1">
          <mxGeometry x="240" y="470" width="120" height="40" as="geometry" />
        </mxCell>
        <mxCell id="6Pqj2eO8Iks_32iRVp92-38" value="&lt;span class=&quot;&quot; style=&quot;margin: 0px; padding: 0px; max-width: 100%; box-sizing: border-box; font-family: consolas, inconsolata, courier, monospace; font-size: inherit; font-weight: normal; letter-spacing: 2px; text-indent: 0px; text-transform: none; word-spacing: 0px; background-color: rgb(238, 238, 238); text-decoration: none; color: rgb(153, 153, 136); line-height: inherit; font-style: italic; overflow-wrap: inherit; word-break: inherit;&quot;&gt;//&amp;nbsp;并给结构体赋值&lt;/span&gt;&lt;br style=&quot;margin: 0px; padding: 0px; max-width: 100%; box-sizing: border-box; color: inherit; font-family: consolas, inconsolata, courier, monospace; font-size: inherit; font-style: normal; font-weight: normal; letter-spacing: 2px; text-indent: 0px; text-transform: none; word-spacing: 0px; background-color: rgb(238, 238, 238); text-decoration: none; line-height: inherit; overflow-wrap: inherit; word-break: inherit;&quot;&gt;&lt;span class=&quot;&quot; style=&quot;margin: 0px; padding: 0px; max-width: 100%; box-sizing: border-box; color: inherit; font-family: consolas, inconsolata, courier, monospace; font-size: inherit; font-style: normal; font-weight: normal; letter-spacing: 2px; text-indent: 0px; text-transform: none; word-spacing: 0px; background-color: rgb(238, 238, 238); text-decoration: none; line-height: inherit; overflow-wrap: inherit; word-break: inherit;&quot;&gt;&lt;span class=&quot;&quot; style=&quot;margin: 0px ; padding: 0px ; max-width: 100% ; box-sizing: border-box ; word-wrap: break-word ; font-size: inherit ; color: rgb(0 , 153 , 153) ; line-height: inherit ; overflow-wrap: inherit ; word-break: inherit&quot;&gt;func&lt;/span&gt;&amp;nbsp;&lt;span class=&quot;&quot; style=&quot;margin: 0px ; padding: 0px ; max-width: 100% ; box-sizing: border-box ; word-wrap: break-word ; font-size: inherit ; color: rgb(153 , 0 , 0) ; line-height: inherit ; overflow-wrap: inherit ; word-break: inherit&quot;&gt;CreateStruct&lt;/span&gt;&lt;span class=&quot;&quot; style=&quot;margin: 0px ; padding: 0px ; max-width: 100% ; box-sizing: border-box ; word-wrap: break-word ; font-size: inherit ; color: inherit ; line-height: inherit ; overflow-wrap: inherit ; word-break: inherit&quot;&gt;(i&amp;nbsp;&lt;span class=&quot;&quot; style=&quot;margin: 0px ; padding: 0px ; max-width: 100% ; box-sizing: border-box ; word-wrap: break-word ; font-size: inherit ; color: rgb(0 , 153 , 153) ; line-height: inherit ; overflow-wrap: inherit ; word-break: inherit&quot;&gt;interface&lt;/span&gt;{})&lt;/span&gt;&amp;nbsp;*&lt;span class=&quot;&quot; style=&quot;margin: 0px ; padding: 0px ; max-width: 100% ; box-sizing: border-box ; word-wrap: break-word ; font-size: inherit ; color: rgb(153 , 0 , 0) ; line-height: inherit ; overflow-wrap: inherit ; word-break: inherit&quot;&gt;Employee&lt;/span&gt;&lt;/span&gt;&lt;span style=&quot;color: rgb(0, 0, 0); font-family: consolas, inconsolata, courier, monospace; font-size: 14px; font-style: normal; font-weight: normal; letter-spacing: 2px; text-indent: 0px; text-transform: none; word-spacing: 0px; background-color: rgb(238, 238, 238); text-decoration: none; display: inline; float: none;&quot;&gt;&amp;nbsp;{&lt;/span&gt;&lt;br style=&quot;margin: 0px; padding: 0px; max-width: 100%; box-sizing: border-box; color: inherit; font-family: consolas, inconsolata, courier, monospace; font-size: inherit; font-style: normal; font-weight: normal; letter-spacing: 2px; text-indent: 0px; text-transform: none; word-spacing: 0px; background-color: rgb(238, 238, 238); text-decoration: none; line-height: inherit; overflow-wrap: inherit; word-break: inherit;&quot;&gt;&lt;span style=&quot;color: rgb(0, 0, 0); font-family: consolas, inconsolata, courier, monospace; font-size: 14px; font-style: normal; font-weight: normal; letter-spacing: 2px; text-indent: 0px; text-transform: none; word-spacing: 0px; background-color: rgb(238, 238, 238); text-decoration: none; display: inline; float: none;&quot;&gt;&amp;nbsp;&amp;nbsp;&amp;nbsp;&amp;nbsp;&lt;/span&gt;&lt;span class=&quot;&quot; style=&quot;margin: 0px; padding: 0px; max-width: 100%; box-sizing: border-box; font-family: consolas, inconsolata, courier, monospace; font-size: inherit; font-style: normal; font-weight: normal; letter-spacing: 2px; text-indent: 0px; text-transform: none; word-spacing: 0px; background-color: rgb(238, 238, 238); text-decoration: none; color: rgb(0, 153, 153); line-height: inherit; overflow-wrap: inherit; word-break: inherit;&quot;&gt;var&lt;/span&gt;&lt;span style=&quot;color: rgb(0, 0, 0); font-family: consolas, inconsolata, courier, monospace; font-size: 14px; font-style: normal; font-weight: normal; letter-spacing: 2px; text-indent: 0px; text-transform: none; word-spacing: 0px; background-color: rgb(238, 238, 238); text-decoration: none; display: inline; float: none;&quot;&gt;&amp;nbsp;(&lt;/span&gt;&lt;br style=&quot;margin: 0px; padding: 0px; max-width: 100%; box-sizing: border-box; color: inherit; font-family: consolas, inconsolata, courier, monospace; font-size: inherit; font-style: normal; font-weight: normal; letter-spacing: 2px; text-indent: 0px; text-transform: none; word-spacing: 0px; background-color: rgb(238, 238, 238); text-decoration: none; line-height: inherit; overflow-wrap: inherit; word-break: inherit;&quot;&gt;&lt;span style=&quot;color: rgb(0, 0, 0); font-family: consolas, inconsolata, courier, monospace; font-size: 14px; font-style: normal; font-weight: normal; letter-spacing: 2px; text-indent: 0px; text-transform: none; word-spacing: 0px; background-color: rgb(238, 238, 238); text-decoration: none; display: inline; float: none;&quot;&gt;&amp;nbsp;&amp;nbsp;&amp;nbsp;&amp;nbsp;&amp;nbsp;&amp;nbsp;&amp;nbsp;&amp;nbsp;structType&amp;nbsp;&amp;nbsp;reflect.Type&lt;/span&gt;&lt;br style=&quot;margin: 0px; padding: 0px; max-width: 100%; box-sizing: border-box; color: inherit; font-family: consolas, inconsolata, courier, monospace; font-size: inherit; font-style: normal; font-weight: normal; letter-spacing: 2px; text-indent: 0px; text-transform: none; word-spacing: 0px; background-color: rgb(238, 238, 238); text-decoration: none; line-height: inherit; overflow-wrap: inherit; word-break: inherit;&quot;&gt;&lt;span style=&quot;color: rgb(0, 0, 0); font-family: consolas, inconsolata, courier, monospace; font-size: 14px; font-style: normal; font-weight: normal; letter-spacing: 2px; text-indent: 0px; text-transform: none; word-spacing: 0px; background-color: rgb(238, 238, 238); text-decoration: none; display: inline; float: none;&quot;&gt;&amp;nbsp;&amp;nbsp;&amp;nbsp;&amp;nbsp;&amp;nbsp;&amp;nbsp;&amp;nbsp;&amp;nbsp;structValue&amp;nbsp;reflect.Value&lt;/span&gt;&lt;br style=&quot;margin: 0px; padding: 0px; max-width: 100%; box-sizing: border-box; color: inherit; font-family: consolas, inconsolata, courier, monospace; font-size: inherit; font-style: normal; font-weight: normal; letter-spacing: 2px; text-indent: 0px; text-transform: none; word-spacing: 0px; background-color: rgb(238, 238, 238); text-decoration: none; line-height: inherit; overflow-wrap: inherit; word-break: inherit;&quot;&gt;&lt;span style=&quot;color: rgb(0, 0, 0); font-family: consolas, inconsolata, courier, monospace; font-size: 14px; font-style: normal; font-weight: normal; letter-spacing: 2px; text-indent: 0px; text-transform: none; word-spacing: 0px; background-color: rgb(238, 238, 238); text-decoration: none; display: inline; float: none;&quot;&gt;&amp;nbsp;&amp;nbsp;&amp;nbsp;&amp;nbsp;)&lt;/span&gt;&lt;br style=&quot;margin: 0px; padding: 0px; max-width: 100%; box-sizing: border-box; color: inherit; font-family: consolas, inconsolata, courier, monospace; font-size: inherit; font-style: normal; font-weight: normal; letter-spacing: 2px; text-indent: 0px; text-transform: none; word-spacing: 0px; background-color: rgb(238, 238, 238); text-decoration: none; line-height: inherit; overflow-wrap: inherit; word-break: inherit;&quot;&gt;&lt;span style=&quot;color: rgb(0, 0, 0); font-family: consolas, inconsolata, courier, monospace; font-size: 14px; font-style: normal; font-weight: normal; letter-spacing: 2px; text-indent: 0px; text-transform: none; word-spacing: 0px; background-color: rgb(238, 238, 238); text-decoration: none; display: inline; float: none;&quot;&gt;&amp;nbsp;&amp;nbsp;&amp;nbsp;&amp;nbsp;&lt;/span&gt;&lt;span class=&quot;&quot; style=&quot;margin: 0px; padding: 0px; max-width: 100%; box-sizing: border-box; font-family: consolas, inconsolata, courier, monospace; font-size: inherit; font-weight: normal; letter-spacing: 2px; text-indent: 0px; text-transform: none; word-spacing: 0px; background-color: rgb(238, 238, 238); text-decoration: none; color: rgb(153, 153, 136); line-height: inherit; font-style: italic; overflow-wrap: inherit; word-break: inherit;&quot;&gt;//&amp;nbsp;获取传入结构体指向的Type类型&lt;/span&gt;&lt;br style=&quot;margin: 0px; padding: 0px; max-width: 100%; box-sizing: border-box; color: inherit; font-family: consolas, inconsolata, courier, monospace; font-size: inherit; font-style: normal; font-weight: normal; letter-spacing: 2px; text-indent: 0px; text-transform: none; word-spacing: 0px; background-color: rgb(238, 238, 238); text-decoration: none; line-height: inherit; overflow-wrap: inherit; word-break: inherit;&quot;&gt;&lt;span style=&quot;color: rgb(0, 0, 0); font-family: consolas, inconsolata, courier, monospace; font-size: 14px; font-style: normal; font-weight: normal; letter-spacing: 2px; text-indent: 0px; text-transform: none; word-spacing: 0px; background-color: rgb(238, 238, 238); text-decoration: none; display: inline; float: none;&quot;&gt;&amp;nbsp;&amp;nbsp;&amp;nbsp;&amp;nbsp;structType&amp;nbsp;=&amp;nbsp;reflect.TypeOf(i).Elem()&lt;/span&gt;&lt;br style=&quot;margin: 0px; padding: 0px; max-width: 100%; box-sizing: border-box; color: inherit; font-family: consolas, inconsolata, courier, monospace; font-size: inherit; font-style: normal; font-weight: normal; letter-spacing: 2px; text-indent: 0px; text-transform: none; word-spacing: 0px; background-color: rgb(238, 238, 238); text-decoration: none; line-height: inherit; overflow-wrap: inherit; word-break: inherit;&quot;&gt;&lt;span style=&quot;color: rgb(0, 0, 0); font-family: consolas, inconsolata, courier, monospace; font-size: 14px; font-style: normal; font-weight: normal; letter-spacing: 2px; text-indent: 0px; text-transform: none; word-spacing: 0px; background-color: rgb(238, 238, 238); text-decoration: none; display: inline; float: none;&quot;&gt;&amp;nbsp;&amp;nbsp;&amp;nbsp;&amp;nbsp;&lt;/span&gt;&lt;span class=&quot;&quot; style=&quot;margin: 0px; padding: 0px; max-width: 100%; box-sizing: border-box; font-family: consolas, inconsolata, courier, monospace; font-size: inherit; font-weight: normal; letter-spacing: 2px; text-indent: 0px; text-transform: none; word-spacing: 0px; background-color: rgb(238, 238, 238); text-decoration: none; color: rgb(153, 153, 136); line-height: inherit; font-style: italic; overflow-wrap: inherit; word-break: inherit;&quot;&gt;//&amp;nbsp;创建一个结构体&lt;/span&gt;&lt;br style=&quot;margin: 0px; padding: 0px; max-width: 100%; box-sizing: border-box; color: inherit; font-family: consolas, inconsolata, courier, monospace; font-size: inherit; font-style: normal; font-weight: normal; letter-spacing: 2px; text-indent: 0px; text-transform: none; word-spacing: 0px; background-color: rgb(238, 238, 238); text-decoration: none; line-height: inherit; overflow-wrap: inherit; word-break: inherit;&quot;&gt;&lt;span style=&quot;color: rgb(0, 0, 0); font-family: consolas, inconsolata, courier, monospace; font-size: 14px; font-style: normal; font-weight: normal; letter-spacing: 2px; text-indent: 0px; text-transform: none; word-spacing: 0px; background-color: rgb(238, 238, 238); text-decoration: none; display: inline; float: none;&quot;&gt;&amp;nbsp;&amp;nbsp;&amp;nbsp;&amp;nbsp;&lt;/span&gt;&lt;span class=&quot;&quot; style=&quot;margin: 0px; padding: 0px; max-width: 100%; box-sizing: border-box; font-family: consolas, inconsolata, courier, monospace; font-size: inherit; font-weight: normal; letter-spacing: 2px; text-indent: 0px; text-transform: none; word-spacing: 0px; background-color: rgb(238, 238, 238); text-decoration: none; color: rgb(153, 153, 136); line-height: inherit; font-style: italic; overflow-wrap: inherit; word-break: inherit;&quot;&gt;//&amp;nbsp;structValue持有一个指向类型为Type的新申请的指针&lt;/span&gt;&lt;br style=&quot;margin: 0px; padding: 0px; max-width: 100%; box-sizing: border-box; color: inherit; font-family: consolas, inconsolata, courier, monospace; font-size: inherit; font-style: normal; font-weight: normal; letter-spacing: 2px; text-indent: 0px; text-transform: none; word-spacing: 0px; background-color: rgb(238, 238, 238); text-decoration: none; line-height: inherit; overflow-wrap: inherit; word-break: inherit;&quot;&gt;&lt;span style=&quot;color: rgb(0, 0, 0); font-family: consolas, inconsolata, courier, monospace; font-size: 14px; font-style: normal; font-weight: normal; letter-spacing: 2px; text-indent: 0px; text-transform: none; word-spacing: 0px; background-color: rgb(238, 238, 238); text-decoration: none; display: inline; float: none;&quot;&gt;&amp;nbsp;&amp;nbsp;&amp;nbsp;&amp;nbsp;structValue&amp;nbsp;=&amp;nbsp;reflect.New(structType)&lt;/span&gt;&lt;br style=&quot;margin: 0px; padding: 0px; max-width: 100%; box-sizing: border-box; color: inherit; font-family: consolas, inconsolata, courier, monospace; font-size: inherit; font-style: normal; font-weight: normal; letter-spacing: 2px; text-indent: 0px; text-transform: none; word-spacing: 0px; background-color: rgb(238, 238, 238); text-decoration: none; line-height: inherit; overflow-wrap: inherit; word-break: inherit;&quot;&gt;&lt;span style=&quot;color: rgb(0, 0, 0); font-family: consolas, inconsolata, courier, monospace; font-size: 14px; font-style: normal; font-weight: normal; letter-spacing: 2px; text-indent: 0px; text-transform: none; word-spacing: 0px; background-color: rgb(238, 238, 238); text-decoration: none; display: inline; float: none;&quot;&gt;&amp;nbsp;&amp;nbsp;&amp;nbsp;&amp;nbsp;&lt;/span&gt;&lt;span class=&quot;&quot; style=&quot;margin: 0px; padding: 0px; max-width: 100%; box-sizing: border-box; font-family: consolas, inconsolata, courier, monospace; font-size: inherit; font-weight: normal; letter-spacing: 2px; text-indent: 0px; text-transform: none; word-spacing: 0px; background-color: rgb(238, 238, 238); text-decoration: none; color: rgb(153, 153, 136); line-height: inherit; font-style: italic; overflow-wrap: inherit; word-break: inherit;&quot;&gt;//&amp;nbsp;转换成我们要创建的结构体&lt;/span&gt;&lt;br style=&quot;margin: 0px; padding: 0px; max-width: 100%; box-sizing: border-box; color: inherit; font-family: consolas, inconsolata, courier, monospace; font-size: inherit; font-style: normal; font-weight: normal; letter-spacing: 2px; text-indent: 0px; text-transform: none; word-spacing: 0px; background-color: rgb(238, 238, 238); text-decoration: none; line-height: inherit; overflow-wrap: inherit; word-break: inherit;&quot;&gt;&lt;span style=&quot;color: rgb(0, 0, 0); font-family: consolas, inconsolata, courier, monospace; font-size: 14px; font-style: normal; font-weight: normal; letter-spacing: 2px; text-indent: 0px; text-transform: none; word-spacing: 0px; background-color: rgb(238, 238, 238); text-decoration: none; display: inline; float: none;&quot;&gt;&amp;nbsp;&amp;nbsp;&amp;nbsp;&amp;nbsp;modle&amp;nbsp;:=&amp;nbsp;structValue.Interface().(*Employee)&lt;/span&gt;&lt;br style=&quot;margin: 0px; padding: 0px; max-width: 100%; box-sizing: border-box; color: inherit; font-family: consolas, inconsolata, courier, monospace; font-size: inherit; font-style: normal; font-weight: normal; letter-spacing: 2px; text-indent: 0px; text-transform: none; word-spacing: 0px; background-color: rgb(238, 238, 238); text-decoration: none; line-height: inherit; overflow-wrap: inherit; word-break: inherit;&quot;&gt;&lt;span style=&quot;color: rgb(0, 0, 0); font-family: consolas, inconsolata, courier, monospace; font-size: 14px; font-style: normal; font-weight: normal; letter-spacing: 2px; text-indent: 0px; text-transform: none; word-spacing: 0px; background-color: rgb(238, 238, 238); text-decoration: none; display: inline; float: none;&quot;&gt;&amp;nbsp;&amp;nbsp;&amp;nbsp;&amp;nbsp;&lt;/span&gt;&lt;span class=&quot;&quot; style=&quot;margin: 0px; padding: 0px; max-width: 100%; box-sizing: border-box; font-family: consolas, inconsolata, courier, monospace; font-size: inherit; font-weight: normal; letter-spacing: 2px; text-indent: 0px; text-transform: none; word-spacing: 0px; background-color: rgb(238, 238, 238); text-decoration: none; color: rgb(153, 153, 136); line-height: inherit; font-style: italic; overflow-wrap: inherit; word-break: inherit;&quot;&gt;//&amp;nbsp;取得structValue指向的值&lt;/span&gt;&lt;br style=&quot;margin: 0px; padding: 0px; max-width: 100%; box-sizing: border-box; color: inherit; font-family: consolas, inconsolata, courier, monospace; font-size: inherit; font-style: normal; font-weight: normal; letter-spacing: 2px; text-indent: 0px; text-transform: none; word-spacing: 0px; background-color: rgb(238, 238, 238); text-decoration: none; line-height: inherit; overflow-wrap: inherit; word-break: inherit;&quot;&gt;&lt;span style=&quot;color: rgb(0, 0, 0); font-family: consolas, inconsolata, courier, monospace; font-size: 14px; font-style: normal; font-weight: normal; letter-spacing: 2px; text-indent: 0px; text-transform: none; word-spacing: 0px; background-color: rgb(238, 238, 238); text-decoration: none; display: inline; float: none;&quot;&gt;&amp;nbsp;&amp;nbsp;&amp;nbsp;&amp;nbsp;structValue&amp;nbsp;=&amp;nbsp;structValue.Elem()&lt;/span&gt;&lt;br style=&quot;margin: 0px; padding: 0px; max-width: 100%; box-sizing: border-box; color: inherit; font-family: consolas, inconsolata, courier, monospace; font-size: inherit; font-style: normal; font-weight: normal; letter-spacing: 2px; text-indent: 0px; text-transform: none; word-spacing: 0px; background-color: rgb(238, 238, 238); text-decoration: none; line-height: inherit; overflow-wrap: inherit; word-break: inherit;&quot;&gt;&lt;span style=&quot;color: rgb(0, 0, 0); font-family: consolas, inconsolata, courier, monospace; font-size: 14px; font-style: normal; font-weight: normal; letter-spacing: 2px; text-indent: 0px; text-transform: none; word-spacing: 0px; background-color: rgb(238, 238, 238); text-decoration: none; display: inline; float: none;&quot;&gt;&amp;nbsp;&amp;nbsp;&amp;nbsp;&amp;nbsp;&lt;/span&gt;&lt;span class=&quot;&quot; style=&quot;margin: 0px; padding: 0px; max-width: 100%; box-sizing: border-box; font-family: consolas, inconsolata, courier, monospace; font-size: inherit; font-weight: normal; letter-spacing: 2px; text-indent: 0px; text-transform: none; word-spacing: 0px; background-color: rgb(238, 238, 238); text-decoration: none; color: rgb(153, 153, 136); line-height: inherit; font-style: italic; overflow-wrap: inherit; word-break: inherit;&quot;&gt;//&amp;nbsp;给结构体赋值&lt;/span&gt;&lt;br style=&quot;margin: 0px; padding: 0px; max-width: 100%; box-sizing: border-box; color: inherit; font-family: consolas, inconsolata, courier, monospace; font-size: inherit; font-style: normal; font-weight: normal; letter-spacing: 2px; text-indent: 0px; text-transform: none; word-spacing: 0px; background-color: rgb(238, 238, 238); text-decoration: none; line-height: inherit; overflow-wrap: inherit; word-break: inherit;&quot;&gt;&lt;span style=&quot;color: rgb(0, 0, 0); font-family: consolas, inconsolata, courier, monospace; font-size: 14px; font-style: normal; font-weight: normal; letter-spacing: 2px; text-indent: 0px; text-transform: none; word-spacing: 0px; background-color: rgb(238, 238, 238); text-decoration: none; display: inline; float: none;&quot;&gt;&amp;nbsp;&amp;nbsp;&amp;nbsp;&amp;nbsp;structValue.FieldByName(&lt;/span&gt;&lt;span class=&quot;&quot; style=&quot;margin: 0px; padding: 0px; max-width: 100%; box-sizing: border-box; font-family: consolas, inconsolata, courier, monospace; font-size: inherit; font-style: normal; font-weight: normal; letter-spacing: 2px; text-indent: 0px; text-transform: none; word-spacing: 0px; background-color: rgb(238, 238, 238); text-decoration: none; color: rgb(221, 17, 68); line-height: inherit; overflow-wrap: inherit; word-break: inherit;&quot;&gt;&quot;Name&quot;&lt;/span&gt;&lt;span style=&quot;color: rgb(0, 0, 0); font-family: consolas, inconsolata, courier, monospace; font-size: 14px; font-style: normal; font-weight: normal; letter-spacing: 2px; text-indent: 0px; text-transform: none; word-spacing: 0px; background-color: rgb(238, 238, 238); text-decoration: none; display: inline; float: none;&quot;&gt;).SetString(&lt;/span&gt;&lt;span class=&quot;&quot; style=&quot;margin: 0px; padding: 0px; max-width: 100%; box-sizing: border-box; font-family: consolas, inconsolata, courier, monospace; font-size: inherit; font-style: normal; font-weight: normal; letter-spacing: 2px; text-indent: 0px; text-transform: none; word-spacing: 0px; background-color: rgb(238, 238, 238); text-decoration: none; color: rgb(221, 17, 68); line-height: inherit; overflow-wrap: inherit; word-break: inherit;&quot;&gt;&quot;闹闹吃鱼&quot;&lt;/span&gt;&lt;span style=&quot;color: rgb(0, 0, 0); font-family: consolas, inconsolata, courier, monospace; font-size: 14px; font-style: normal; font-weight: normal; letter-spacing: 2px; text-indent: 0px; text-transform: none; word-spacing: 0px; background-color: rgb(238, 238, 238); text-decoration: none; display: inline; float: none;&quot;&gt;)&lt;/span&gt;&lt;br style=&quot;margin: 0px; padding: 0px; max-width: 100%; box-sizing: border-box; color: inherit; font-family: consolas, inconsolata, courier, monospace; font-size: inherit; font-style: normal; font-weight: normal; letter-spacing: 2px; text-indent: 0px; text-transform: none; word-spacing: 0px; background-color: rgb(238, 238, 238); text-decoration: none; line-height: inherit; overflow-wrap: inherit; word-break: inherit;&quot;&gt;&lt;span style=&quot;color: rgb(0, 0, 0); font-family: consolas, inconsolata, courier, monospace; font-size: 14px; font-style: normal; font-weight: normal; letter-spacing: 2px; text-indent: 0px; text-transform: none; word-spacing: 0px; background-color: rgb(238, 238, 238); text-decoration: none; display: inline; float: none;&quot;&gt;&amp;nbsp;&amp;nbsp;&amp;nbsp;&amp;nbsp;structValue.FieldByName(&lt;/span&gt;&lt;span class=&quot;&quot; style=&quot;margin: 0px; padding: 0px; max-width: 100%; box-sizing: border-box; font-family: consolas, inconsolata, courier, monospace; font-size: inherit; font-style: normal; font-weight: normal; letter-spacing: 2px; text-indent: 0px; text-transform: none; word-spacing: 0px; background-color: rgb(238, 238, 238); text-decoration: none; color: rgb(221, 17, 68); line-height: inherit; overflow-wrap: inherit; word-break: inherit;&quot;&gt;&quot;Age&quot;&lt;/span&gt;&lt;span style=&quot;color: rgb(0, 0, 0); font-family: consolas, inconsolata, courier, monospace; font-size: 14px; font-style: normal; font-weight: normal; letter-spacing: 2px; text-indent: 0px; text-transform: none; word-spacing: 0px; background-color: rgb(238, 238, 238); text-decoration: none; display: inline; float: none;&quot;&gt;).SetInt(&lt;/span&gt;&lt;span class=&quot;&quot; style=&quot;margin: 0px; padding: 0px; max-width: 100%; box-sizing: border-box; font-family: consolas, inconsolata, courier, monospace; font-size: inherit; font-style: normal; font-weight: normal; letter-spacing: 2px; text-indent: 0px; text-transform: none; word-spacing: 0px; background-color: rgb(238, 238, 238); text-decoration: none; color: rgb(0, 153, 153); line-height: inherit; overflow-wrap: inherit; word-break: inherit;&quot;&gt;100&lt;/span&gt;&lt;span style=&quot;color: rgb(0, 0, 0); font-family: consolas, inconsolata, courier, monospace; font-size: 14px; font-style: normal; font-weight: normal; letter-spacing: 2px; text-indent: 0px; text-transform: none; word-spacing: 0px; background-color: rgb(238, 238, 238); text-decoration: none; display: inline; float: none;&quot;&gt;)&lt;/span&gt;&lt;br style=&quot;margin: 0px; padding: 0px; max-width: 100%; box-sizing: border-box; color: inherit; font-family: consolas, inconsolata, courier, monospace; font-size: inherit; font-style: normal; font-weight: normal; letter-spacing: 2px; text-indent: 0px; text-transform: none; word-spacing: 0px; background-color: rgb(238, 238, 238); text-decoration: none; line-height: inherit; overflow-wrap: inherit; word-break: inherit;&quot;&gt;&lt;span style=&quot;color: rgb(0, 0, 0); font-family: consolas, inconsolata, courier, monospace; font-size: 14px; font-style: normal; font-weight: normal; letter-spacing: 2px; text-indent: 0px; text-transform: none; word-spacing: 0px; background-color: rgb(238, 238, 238); text-decoration: none; display: inline; float: none;&quot;&gt;&amp;nbsp;&amp;nbsp;&amp;nbsp;&amp;nbsp;&lt;/span&gt;&lt;span class=&quot;&quot; style=&quot;margin: 0px; padding: 0px; max-width: 100%; box-sizing: border-box; font-family: consolas, inconsolata, courier, monospace; font-size: inherit; font-style: normal; font-weight: normal; letter-spacing: 2px; text-indent: 0px; text-transform: none; word-spacing: 0px; background-color: rgb(238, 238, 238); text-decoration: none; color: rgb(0, 153, 153); line-height: inherit; overflow-wrap: inherit; word-break: inherit;&quot;&gt;return&lt;/span&gt;&lt;span style=&quot;color: rgb(0, 0, 0); font-family: consolas, inconsolata, courier, monospace; font-size: 14px; font-style: normal; font-weight: normal; letter-spacing: 2px; text-indent: 0px; text-transform: none; word-spacing: 0px; background-color: rgb(238, 238, 238); text-decoration: none; display: inline; float: none;&quot;&gt;&amp;nbsp;modle&lt;/span&gt;&lt;br style=&quot;margin: 0px; padding: 0px; max-width: 100%; box-sizing: border-box; color: inherit; font-family: consolas, inconsolata, courier, monospace; font-size: inherit; font-style: normal; font-weight: normal; letter-spacing: 2px; text-indent: 0px; text-transform: none; word-spacing: 0px; background-color: rgb(238, 238, 238); text-decoration: none; line-height: inherit; overflow-wrap: inherit; word-break: inherit;&quot;&gt;&lt;span style=&quot;color: rgb(0, 0, 0); font-family: consolas, inconsolata, courier, monospace; font-size: 14px; font-style: normal; font-weight: normal; letter-spacing: 2px; text-indent: 0px; text-transform: none; word-spacing: 0px; background-color: rgb(238, 238, 238); text-decoration: none; display: inline; float: none;&quot;&gt;}&lt;/span&gt;" style="text;whiteSpace=wrap;html=1;fontSize=12;" vertex="1" parent="1">
          <mxGeometry x="75" y="800" width="550" height="330" as="geometry" />
        </mxCell>
        <mxCell id="6Pqj2eO8Iks_32iRVp92-39" value="&lt;p style=&quot;margin: 15px 0px; padding: 0px; max-width: 100%; box-sizing: border-box; overflow-wrap: break-word; clear: both; min-height: 1em; font-style: normal; font-weight: normal; letter-spacing: 0.621714px; text-indent: 0px; text-transform: none; word-spacing: 0px; text-decoration: none; font-size: 16px; line-height: 30px; color: rgb(74, 74, 74);&quot;&gt;这是使用这种思路的一些开源工具:&lt;/p&gt;&lt;ol class=&quot;list-paddingleft-2&quot; style=&quot;margin: 0px; padding: 0px 0px 0px 2.2em; max-width: 100%; box-sizing: border-box; overflow-wrap: break-word; color: rgb(51, 51, 51); font-size: 17px; font-style: normal; font-weight: normal; letter-spacing: 0.621714px; text-align: justify; text-indent: 0px; text-transform: none; word-spacing: 0px; text-decoration: none;&quot;&gt;&lt;li style=&quot;margin: 0px ; padding: 0px ; max-width: 100% ; box-sizing: border-box ; word-wrap: break-word&quot;&gt;&lt;p style=&quot;margin: 0px ; padding: 0px ; max-width: 100% ; box-sizing: border-box ; word-wrap: break-word ; clear: both ; min-height: 1em&quot;&gt;&lt;span style=&quot;margin: 0px ; padding: 0px ; max-width: 100% ; box-sizing: border-box ; word-wrap: break-word ; color: rgb(74 , 74 , 74) ; line-height: 22px ; font-size: 14px&quot;&gt;&lt;span style=&quot;margin: 0px ; padding: 0px ; max-width: 100% ; box-sizing: border-box ; word-wrap: break-word ; line-height: 22px&quot;&gt;结构体参数校验 gopkg.in/go-playground/validator.v9&lt;/span&gt;&lt;/span&gt;&lt;/p&gt;&lt;/li&gt;&lt;li style=&quot;margin: 0px ; padding: 0px ; max-width: 100% ; box-sizing: border-box ; word-wrap: break-word&quot;&gt;&lt;p style=&quot;margin: 0px ; padding: 0px ; max-width: 100% ; box-sizing: border-box ; word-wrap: break-word ; clear: both ; min-height: 1em&quot;&gt;&lt;span style=&quot;margin: 0px ; padding: 0px ; max-width: 100% ; box-sizing: border-box ; word-wrap: break-word ; color: rgb(74 , 74 , 74) ; line-height: 22px ; font-size: 14px&quot;&gt;&lt;span style=&quot;margin: 0px ; padding: 0px ; max-width: 100% ; box-sizing: border-box ; word-wrap: break-word ; line-height: 22px&quot;&gt;格式化 json.Unmarshal&lt;/span&gt;&lt;/span&gt;&lt;/p&gt;&lt;/li&gt;&lt;li style=&quot;margin: 0px ; padding: 0px ; max-width: 100% ; box-sizing: border-box ; word-wrap: break-word&quot;&gt;&lt;p style=&quot;margin: 0px ; padding: 0px ; max-width: 100% ; box-sizing: border-box ; word-wrap: break-word ; clear: both ; min-height: 1em&quot;&gt;&lt;span style=&quot;margin: 0px ; padding: 0px ; max-width: 100% ; box-sizing: border-box ; word-wrap: break-word ; color: rgb(74 , 74 , 74) ; line-height: 22px ; font-size: 14px&quot;&gt;&lt;span style=&quot;margin: 0px ; padding: 0px ; max-width: 100% ; box-sizing: border-box ; word-wrap: break-word ; line-height: 22px&quot;&gt;orm工具 github.com/jmoiron/sqlx/ 将结构体属性转换成 pre sql&lt;/span&gt;&lt;/span&gt;&lt;/p&gt;&lt;/li&gt;&lt;/ol&gt;" style="text;whiteSpace=wrap;html=1;fontSize=12;" vertex="1" parent="1">
          <mxGeometry x="75" y="650" width="480" height="140" as="geometry" />
        </mxCell>
        <UserObject label="https://mp.weixin.qq.com/s/ZJ9W68JQDJh43j_XdLc6Ew" link="https://mp.weixin.qq.com/s/ZJ9W68JQDJh43j_XdLc6Ew" id="6Pqj2eO8Iks_32iRVp92-40">
          <mxCell style="text;whiteSpace=wrap;html=1;fontSize=12;" vertex="1" parent="1">
            <mxGeometry x="710" y="660" width="320" height="30" as="geometry" />
          </mxCell>
        </UserObject>
      </root>
    </mxGraphModel>
  </diagram>
</mxfile>
